<mxfile host="Electron" modified="2023-09-04T12:55:12.824Z" agent="Mozilla/5.0 (X11; Linux x86_64) AppleWebKit/537.36 (KHTML, like Gecko) draw.io/21.3.7 Chrome/112.0.5615.204 Electron/24.5.0 Safari/537.36" etag="HaDSSjOxhHPdEJrXHiiS" version="21.3.7" type="device" pages="5">
  <diagram name="Page-1" id="COIQyJhP0iQInXs-E9Vo">
    <mxGraphModel dx="2216" dy="1903" grid="1" gridSize="10" guides="1" tooltips="1" connect="1" arrows="1" fold="1" page="1" pageScale="1" pageWidth="850" pageHeight="1100" math="0" shadow="0">
      <root>
        <mxCell id="0" />
        <mxCell id="1" parent="0" />
        <mxCell id="hnUOdzB3kFyB9FRPAURl-1" value="" style="rounded=0;whiteSpace=wrap;html=1;" vertex="1" parent="1">
          <mxGeometry x="40" y="160" width="1030" height="820" as="geometry" />
        </mxCell>
        <mxCell id="hnUOdzB3kFyB9FRPAURl-2" value="" style="rounded=0;whiteSpace=wrap;html=1;" vertex="1" parent="1">
          <mxGeometry x="240" y="10" width="1210" height="530" as="geometry" />
        </mxCell>
        <mxCell id="hnUOdzB3kFyB9FRPAURl-3" value="" style="rounded=0;whiteSpace=wrap;html=1;" vertex="1" parent="1">
          <mxGeometry x="240" y="540" width="1210" height="440" as="geometry" />
        </mxCell>
        <mxCell id="hnUOdzB3kFyB9FRPAURl-4" value="" style="rounded=0;whiteSpace=wrap;html=1;fontSize=22;" vertex="1" parent="1">
          <mxGeometry x="40" y="891" width="200" height="50" as="geometry" />
        </mxCell>
        <mxCell id="hnUOdzB3kFyB9FRPAURl-5" style="edgeStyle=orthogonalEdgeStyle;rounded=0;orthogonalLoop=1;jettySize=auto;html=1;entryX=0;entryY=0.5;entryDx=0;entryDy=0;dashed=1;strokeWidth=2;" edge="1" parent="1" source="hnUOdzB3kFyB9FRPAURl-6" target="hnUOdzB3kFyB9FRPAURl-10">
          <mxGeometry relative="1" as="geometry" />
        </mxCell>
        <mxCell id="hnUOdzB3kFyB9FRPAURl-6" value="String[ ]&amp;nbsp; args =&amp;nbsp;" style="rounded=0;whiteSpace=wrap;html=1;fontSize=21;" vertex="1" parent="1">
          <mxGeometry x="40" y="791" width="200" height="50" as="geometry" />
        </mxCell>
        <mxCell id="izoFFICX82CBJz_hBlkL-1" style="edgeStyle=orthogonalEdgeStyle;rounded=0;orthogonalLoop=1;jettySize=auto;html=1;entryX=0;entryY=0.5;entryDx=0;entryDy=0;" edge="1" parent="1" source="hnUOdzB3kFyB9FRPAURl-8" target="hnUOdzB3kFyB9FRPAURl-48">
          <mxGeometry relative="1" as="geometry">
            <Array as="points">
              <mxPoint x="360" y="766" />
              <mxPoint x="360" y="40" />
              <mxPoint x="850" y="40" />
              <mxPoint x="850" y="85" />
            </Array>
          </mxGeometry>
        </mxCell>
        <mxCell id="hnUOdzB3kFyB9FRPAURl-8" value="RCP =&amp;nbsp;0XAB987" style="rounded=0;whiteSpace=wrap;html=1;fontSize=21;" vertex="1" parent="1">
          <mxGeometry x="40" y="741" width="200" height="50" as="geometry" />
        </mxCell>
        <mxCell id="hnUOdzB3kFyB9FRPAURl-9" value="" style="rounded=0;whiteSpace=wrap;html=1;" vertex="1" parent="1">
          <mxGeometry x="340" y="831" width="10" height="39" as="geometry" />
        </mxCell>
        <mxCell id="hnUOdzB3kFyB9FRPAURl-10" value="0XAC67" style="rounded=0;whiteSpace=wrap;html=1;fillColor=#fff2cc;strokeColor=#d6b656;fontSize=20;fontStyle=1" vertex="1" parent="1">
          <mxGeometry x="340" y="801" width="100" height="30" as="geometry" />
        </mxCell>
        <mxCell id="hnUOdzB3kFyB9FRPAURl-11" style="edgeStyle=orthogonalEdgeStyle;rounded=0;orthogonalLoop=1;jettySize=auto;html=1;entryX=0.5;entryY=0;entryDx=0;entryDy=0;" edge="1" parent="1" source="hnUOdzB3kFyB9FRPAURl-12" target="hnUOdzB3kFyB9FRPAURl-14">
          <mxGeometry relative="1" as="geometry">
            <Array as="points">
              <mxPoint x="1990" y="-140" />
              <mxPoint x="510" y="-140" />
            </Array>
          </mxGeometry>
        </mxCell>
        <mxCell id="hnUOdzB3kFyB9FRPAURl-53" value="Text" style="edgeLabel;html=1;align=center;verticalAlign=middle;resizable=0;points=[];" vertex="1" connectable="0" parent="hnUOdzB3kFyB9FRPAURl-11">
          <mxGeometry x="-0.4043" y="5" relative="1" as="geometry">
            <mxPoint y="1" as="offset" />
          </mxGeometry>
        </mxCell>
        <mxCell id="hnUOdzB3kFyB9FRPAURl-12" value="Stack.class" style="rounded=0;whiteSpace=wrap;html=1;fontSize=23;" vertex="1" parent="1">
          <mxGeometry x="1910" y="559" width="170" height="170" as="geometry" />
        </mxCell>
        <mxCell id="hnUOdzB3kFyB9FRPAURl-13" value="" style="rounded=0;whiteSpace=wrap;html=1;" vertex="1" parent="1">
          <mxGeometry x="450" y="120" width="220" height="350" as="geometry" />
        </mxCell>
        <mxCell id="hnUOdzB3kFyB9FRPAURl-14" value="0XAB987" style="rounded=0;whiteSpace=wrap;html=1;fontSize=21;fontStyle=1;fillColor=#ffe6cc;strokeColor=#d79b00;" vertex="1" parent="1">
          <mxGeometry x="450" y="70" width="120" height="50" as="geometry" />
        </mxCell>
        <mxCell id="hnUOdzB3kFyB9FRPAURl-15" value="int[ ] : numbers" style="rounded=0;whiteSpace=wrap;html=1;fontSize=22;fillColor=#f8cecc;strokeColor=#b85450;" vertex="1" parent="1">
          <mxGeometry x="450" y="121" width="220" height="50" as="geometry" />
        </mxCell>
        <mxCell id="hnUOdzB3kFyB9FRPAURl-16" value="instance : void Print() { }" style="rounded=0;whiteSpace=wrap;html=1;fontSize=19;fillColor=#f8cecc;strokeColor=#b85450;" vertex="1" parent="1">
          <mxGeometry x="450" y="171" width="220" height="50" as="geometry" />
        </mxCell>
        <mxCell id="hnUOdzB3kFyB9FRPAURl-17" value="Stack() { }" style="rounded=0;whiteSpace=wrap;html=1;fontSize=22;fillColor=#f8cecc;strokeColor=#b85450;" vertex="1" parent="1">
          <mxGeometry x="450" y="221" width="220" height="50" as="geometry" />
        </mxCell>
        <mxCell id="hnUOdzB3kFyB9FRPAURl-19" style="edgeStyle=orthogonalEdgeStyle;rounded=0;orthogonalLoop=1;jettySize=auto;html=1;entryX=1;entryY=0.5;entryDx=0;entryDy=0;dashed=1;strokeWidth=2;" edge="1" parent="1" source="hnUOdzB3kFyB9FRPAURl-20" target="hnUOdzB3kFyB9FRPAURl-22">
          <mxGeometry relative="1" as="geometry">
            <Array as="points">
              <mxPoint x="760" y="500" />
            </Array>
          </mxGeometry>
        </mxCell>
        <mxCell id="hnUOdzB3kFyB9FRPAURl-51" style="edgeStyle=orthogonalEdgeStyle;rounded=0;orthogonalLoop=1;jettySize=auto;html=1;" edge="1" parent="1" source="hnUOdzB3kFyB9FRPAURl-20" target="hnUOdzB3kFyB9FRPAURl-29">
          <mxGeometry relative="1" as="geometry" />
        </mxCell>
        <mxCell id="hnUOdzB3kFyB9FRPAURl-20" value="0XAB013" style="rounded=0;whiteSpace=wrap;html=1;fontSize=21;fontStyle=1;fillColor=#ffe6cc;strokeColor=#d79b00;" vertex="1" parent="1">
          <mxGeometry x="690" y="559" width="120" height="50" as="geometry" />
        </mxCell>
        <mxCell id="hnUOdzB3kFyB9FRPAURl-22" value="Demo4 class Object" style="rounded=0;whiteSpace=wrap;html=1;fontSize=19;" vertex="1" parent="1">
          <mxGeometry x="450" y="420" width="220" height="50" as="geometry" />
        </mxCell>
        <mxCell id="hnUOdzB3kFyB9FRPAURl-25" value="" style="rounded=0;whiteSpace=wrap;html=1;fillColor=#F81E2C;strokeColor=#b85450;fillStyle=hatch;" vertex="1" parent="1">
          <mxGeometry x="40" y="570" width="200" height="170" as="geometry" />
        </mxCell>
        <mxCell id="hnUOdzB3kFyB9FRPAURl-27" value="Stack()" style="rounded=0;whiteSpace=wrap;html=1;fontSize=21;" vertex="1" parent="1">
          <mxGeometry x="-100" y="655" width="120" height="60" as="geometry" />
        </mxCell>
        <mxCell id="hnUOdzB3kFyB9FRPAURl-29" value="this =&amp;nbsp;0XAB013" style="rounded=0;whiteSpace=wrap;html=1;fontSize=21;fillColor=#ffe6cc;strokeColor=#d79b00;" vertex="1" parent="1">
          <mxGeometry x="40" y="570" width="200" height="50" as="geometry" />
        </mxCell>
        <mxCell id="hnUOdzB3kFyB9FRPAURl-30" value="" style="rounded=0;whiteSpace=wrap;html=1;fillColor=#E72350;strokeColor=#9673a6;fillStyle=hatch;" vertex="1" parent="1">
          <mxGeometry x="40" y="400" width="200" height="170" as="geometry" />
        </mxCell>
        <mxCell id="hnUOdzB3kFyB9FRPAURl-31" value="super()" style="rounded=0;whiteSpace=wrap;html=1;fontSize=21;" vertex="1" parent="1">
          <mxGeometry x="-90" y="470" width="120" height="60" as="geometry" />
        </mxCell>
        <mxCell id="hnUOdzB3kFyB9FRPAURl-33" value="0XAB013" style="rounded=0;whiteSpace=wrap;html=1;fontSize=21;" vertex="1" parent="1">
          <mxGeometry x="40" y="841" width="200" height="50" as="geometry" />
        </mxCell>
        <mxCell id="hnUOdzB3kFyB9FRPAURl-37" value="void: push(int num)" style="rounded=0;whiteSpace=wrap;html=1;fontSize=22;fillColor=#f8cecc;strokeColor=#b85450;" vertex="1" parent="1">
          <mxGeometry x="450" y="271" width="220" height="50" as="geometry" />
        </mxCell>
        <mxCell id="hnUOdzB3kFyB9FRPAURl-38" value="void: pop()" style="rounded=0;whiteSpace=wrap;html=1;fontSize=22;fillColor=#f8cecc;strokeColor=#b85450;" vertex="1" parent="1">
          <mxGeometry x="450" y="321" width="220" height="50" as="geometry" />
        </mxCell>
        <mxCell id="hnUOdzB3kFyB9FRPAURl-39" value="int : peek( )&amp;nbsp;" style="rounded=0;whiteSpace=wrap;html=1;fontSize=22;fillColor=#f8cecc;strokeColor=#b85450;" vertex="1" parent="1">
          <mxGeometry x="450" y="371" width="220" height="50" as="geometry" />
        </mxCell>
        <mxCell id="hnUOdzB3kFyB9FRPAURl-40" value="" style="rounded=0;whiteSpace=wrap;html=1;" vertex="1" parent="1">
          <mxGeometry x="690" y="609" width="220" height="350" as="geometry" />
        </mxCell>
        <mxCell id="XRVxepeeaQWZ2Q1hh6Sv-3" style="edgeStyle=orthogonalEdgeStyle;rounded=0;orthogonalLoop=1;jettySize=auto;html=1;entryX=0;entryY=0.5;entryDx=0;entryDy=0;" edge="1" parent="1" source="hnUOdzB3kFyB9FRPAURl-41" target="XRVxepeeaQWZ2Q1hh6Sv-1">
          <mxGeometry relative="1" as="geometry" />
        </mxCell>
        <mxCell id="hnUOdzB3kFyB9FRPAURl-41" value="int[ ] : numbers =&amp;nbsp;0X7E90" style="rounded=0;whiteSpace=wrap;html=1;fontSize=18;fillColor=#d5e8d4;strokeColor=#82b366;" vertex="1" parent="1">
          <mxGeometry x="690" y="610" width="220" height="50" as="geometry" />
        </mxCell>
        <mxCell id="hnUOdzB3kFyB9FRPAURl-42" value="instance : void Print() { }" style="rounded=0;whiteSpace=wrap;html=1;fontSize=19;fillColor=#d5e8d4;strokeColor=#82b366;" vertex="1" parent="1">
          <mxGeometry x="690" y="660" width="220" height="50" as="geometry" />
        </mxCell>
        <mxCell id="hnUOdzB3kFyB9FRPAURl-43" value="Stack() { }" style="rounded=0;whiteSpace=wrap;html=1;fontSize=22;fillColor=#d5e8d4;strokeColor=#82b366;" vertex="1" parent="1">
          <mxGeometry x="690" y="710" width="220" height="50" as="geometry" />
        </mxCell>
        <mxCell id="hnUOdzB3kFyB9FRPAURl-44" value="void: push(int num)" style="rounded=0;whiteSpace=wrap;html=1;fontSize=22;fillColor=#d5e8d4;strokeColor=#82b366;" vertex="1" parent="1">
          <mxGeometry x="690" y="760" width="220" height="50" as="geometry" />
        </mxCell>
        <mxCell id="hnUOdzB3kFyB9FRPAURl-45" value="void: pop()" style="rounded=0;whiteSpace=wrap;html=1;fontSize=22;fillColor=#d5e8d4;strokeColor=#82b366;" vertex="1" parent="1">
          <mxGeometry x="690" y="810" width="220" height="50" as="geometry" />
        </mxCell>
        <mxCell id="hnUOdzB3kFyB9FRPAURl-46" value="int : peek( )&amp;nbsp;" style="rounded=0;whiteSpace=wrap;html=1;fontSize=22;fillColor=#d5e8d4;strokeColor=#82b366;" vertex="1" parent="1">
          <mxGeometry x="690" y="860" width="220" height="50" as="geometry" />
        </mxCell>
        <mxCell id="hnUOdzB3kFyB9FRPAURl-47" value="" style="rounded=0;whiteSpace=wrap;html=1;" vertex="1" parent="1">
          <mxGeometry x="1070" y="110" width="220" height="350" as="geometry" />
        </mxCell>
        <mxCell id="hnUOdzB3kFyB9FRPAURl-48" value="0XAC56" style="rounded=0;whiteSpace=wrap;html=1;fontSize=21;fontStyle=1;fillColor=#ffe6cc;strokeColor=#d79b00;" vertex="1" parent="1">
          <mxGeometry x="1070" y="60" width="120" height="50" as="geometry" />
        </mxCell>
        <mxCell id="hnUOdzB3kFyB9FRPAURl-49" value="Demo8() { }" style="rounded=0;whiteSpace=wrap;html=1;fontSize=19;" vertex="1" parent="1">
          <mxGeometry x="1070" y="110" width="220" height="50" as="geometry" />
        </mxCell>
        <mxCell id="hnUOdzB3kFyB9FRPAURl-52" value="psvm" style="shape=ellipse;html=1;dashed=0;whiteSpace=wrap;perimeter=ellipsePerimeter;fontSize=39;fillColor=#d5e8d4;strokeColor=#82b366;" vertex="1" parent="1">
          <mxGeometry x="1110" y="260" width="140" height="90" as="geometry" />
        </mxCell>
        <mxCell id="hnUOdzB3kFyB9FRPAURl-55" style="edgeStyle=orthogonalEdgeStyle;rounded=0;orthogonalLoop=1;jettySize=auto;html=1;entryX=0.5;entryY=0;entryDx=0;entryDy=0;" edge="1" parent="1" source="hnUOdzB3kFyB9FRPAURl-54" target="hnUOdzB3kFyB9FRPAURl-48">
          <mxGeometry relative="1" as="geometry">
            <Array as="points">
              <mxPoint x="1690" y="-70" />
              <mxPoint x="1130" y="-70" />
            </Array>
          </mxGeometry>
        </mxCell>
        <mxCell id="hnUOdzB3kFyB9FRPAURl-54" value="Demo8.class" style="rounded=0;whiteSpace=wrap;html=1;fontSize=23;" vertex="1" parent="1">
          <mxGeometry x="1580" y="550" width="170" height="170" as="geometry" />
        </mxCell>
        <mxCell id="XRVxepeeaQWZ2Q1hh6Sv-1" value="0X7E90" style="rounded=0;whiteSpace=wrap;html=1;fillColor=#ffe6cc;strokeColor=#d79b00;fontSize=16;fontStyle=1" vertex="1" parent="1">
          <mxGeometry x="1070" y="615" width="100" height="40" as="geometry" />
        </mxCell>
        <mxCell id="XRVxepeeaQWZ2Q1hh6Sv-2" value="" style="rounded=0;whiteSpace=wrap;html=1;" vertex="1" parent="1">
          <mxGeometry x="1070" y="655" width="20" height="40" as="geometry" />
        </mxCell>
      </root>
    </mxGraphModel>
  </diagram>
  <diagram id="zcMEvcoDriiPFsv694MN" name="Page-2">
    <mxGraphModel dx="2049" dy="2304" grid="1" gridSize="10" guides="1" tooltips="1" connect="1" arrows="1" fold="1" page="1" pageScale="1" pageWidth="850" pageHeight="1100" math="0" shadow="0">
      <root>
        <mxCell id="0" />
        <mxCell id="1" parent="0" />
        <mxCell id="2EXYyBfdQXPqUuGO9ZbP-1" value="" style="rounded=0;whiteSpace=wrap;html=1;" vertex="1" parent="1">
          <mxGeometry x="40" y="160" width="1030" height="820" as="geometry" />
        </mxCell>
        <mxCell id="2EXYyBfdQXPqUuGO9ZbP-2" value="" style="rounded=0;whiteSpace=wrap;html=1;" vertex="1" parent="1">
          <mxGeometry x="240" y="10" width="1210" height="530" as="geometry" />
        </mxCell>
        <mxCell id="2EXYyBfdQXPqUuGO9ZbP-3" value="" style="rounded=0;whiteSpace=wrap;html=1;" vertex="1" parent="1">
          <mxGeometry x="240" y="540" width="1210" height="440" as="geometry" />
        </mxCell>
        <mxCell id="2EXYyBfdQXPqUuGO9ZbP-48" style="edgeStyle=orthogonalEdgeStyle;rounded=0;orthogonalLoop=1;jettySize=auto;html=1;entryX=0;entryY=0.5;entryDx=0;entryDy=0;" edge="1" parent="1" source="2EXYyBfdQXPqUuGO9ZbP-4" target="2EXYyBfdQXPqUuGO9ZbP-21">
          <mxGeometry relative="1" as="geometry" />
        </mxCell>
        <mxCell id="2EXYyBfdQXPqUuGO9ZbP-4" value="s1 =&amp;nbsp;0XAB013" style="rounded=0;whiteSpace=wrap;html=1;fontSize=22;" vertex="1" parent="1">
          <mxGeometry x="40" y="891" width="200" height="50" as="geometry" />
        </mxCell>
        <mxCell id="2EXYyBfdQXPqUuGO9ZbP-5" style="edgeStyle=orthogonalEdgeStyle;rounded=0;orthogonalLoop=1;jettySize=auto;html=1;entryX=0;entryY=0.5;entryDx=0;entryDy=0;dashed=1;strokeWidth=2;" edge="1" parent="1" source="2EXYyBfdQXPqUuGO9ZbP-6" target="2EXYyBfdQXPqUuGO9ZbP-10">
          <mxGeometry relative="1" as="geometry" />
        </mxCell>
        <mxCell id="2EXYyBfdQXPqUuGO9ZbP-6" value="String[ ]&amp;nbsp; args =&amp;nbsp;" style="rounded=0;whiteSpace=wrap;html=1;fontSize=21;" vertex="1" parent="1">
          <mxGeometry x="40" y="791" width="200" height="50" as="geometry" />
        </mxCell>
        <mxCell id="2EXYyBfdQXPqUuGO9ZbP-7" style="edgeStyle=orthogonalEdgeStyle;rounded=0;orthogonalLoop=1;jettySize=auto;html=1;entryX=0;entryY=0.5;entryDx=0;entryDy=0;dashed=1;strokeWidth=2;exitX=1;exitY=0.5;exitDx=0;exitDy=0;" edge="1" parent="1" source="2EXYyBfdQXPqUuGO9ZbP-8" target="2EXYyBfdQXPqUuGO9ZbP-15">
          <mxGeometry relative="1" as="geometry">
            <Array as="points">
              <mxPoint x="300" y="854" />
              <mxPoint x="300" y="95" />
            </Array>
          </mxGeometry>
        </mxCell>
        <mxCell id="2EXYyBfdQXPqUuGO9ZbP-8" value="RCP =&amp;nbsp;0XAB987" style="rounded=0;whiteSpace=wrap;html=1;fontSize=21;" vertex="1" parent="1">
          <mxGeometry x="40" y="741" width="200" height="50" as="geometry" />
        </mxCell>
        <mxCell id="2EXYyBfdQXPqUuGO9ZbP-9" value="" style="rounded=0;whiteSpace=wrap;html=1;" vertex="1" parent="1">
          <mxGeometry x="340" y="831" width="10" height="39" as="geometry" />
        </mxCell>
        <mxCell id="2EXYyBfdQXPqUuGO9ZbP-10" value="0XAC67" style="rounded=0;whiteSpace=wrap;html=1;fillColor=#fff2cc;strokeColor=#d6b656;fontSize=20;fontStyle=1" vertex="1" parent="1">
          <mxGeometry x="340" y="801" width="100" height="30" as="geometry" />
        </mxCell>
        <mxCell id="2EXYyBfdQXPqUuGO9ZbP-11" style="edgeStyle=orthogonalEdgeStyle;rounded=0;orthogonalLoop=1;jettySize=auto;html=1;entryX=0.5;entryY=0;entryDx=0;entryDy=0;" edge="1" parent="1" source="2EXYyBfdQXPqUuGO9ZbP-13" target="2EXYyBfdQXPqUuGO9ZbP-15">
          <mxGeometry relative="1" as="geometry">
            <Array as="points">
              <mxPoint x="1990" y="-140" />
              <mxPoint x="510" y="-140" />
            </Array>
          </mxGeometry>
        </mxCell>
        <mxCell id="2EXYyBfdQXPqUuGO9ZbP-12" value="Text" style="edgeLabel;html=1;align=center;verticalAlign=middle;resizable=0;points=[];" vertex="1" connectable="0" parent="2EXYyBfdQXPqUuGO9ZbP-11">
          <mxGeometry x="-0.4043" y="5" relative="1" as="geometry">
            <mxPoint y="1" as="offset" />
          </mxGeometry>
        </mxCell>
        <mxCell id="2EXYyBfdQXPqUuGO9ZbP-13" value="Stack.class" style="rounded=0;whiteSpace=wrap;html=1;fontSize=23;" vertex="1" parent="1">
          <mxGeometry x="1910" y="559" width="170" height="170" as="geometry" />
        </mxCell>
        <mxCell id="2EXYyBfdQXPqUuGO9ZbP-14" value="" style="rounded=0;whiteSpace=wrap;html=1;" vertex="1" parent="1">
          <mxGeometry x="450" y="120" width="220" height="350" as="geometry" />
        </mxCell>
        <mxCell id="2EXYyBfdQXPqUuGO9ZbP-15" value="0XAB987" style="rounded=0;whiteSpace=wrap;html=1;fontSize=21;fontStyle=1;fillColor=#ffe6cc;strokeColor=#d79b00;" vertex="1" parent="1">
          <mxGeometry x="450" y="70" width="120" height="50" as="geometry" />
        </mxCell>
        <mxCell id="2EXYyBfdQXPqUuGO9ZbP-16" value="int[ ] : numbers" style="rounded=0;whiteSpace=wrap;html=1;fontSize=22;fillColor=#f8cecc;strokeColor=#b85450;" vertex="1" parent="1">
          <mxGeometry x="450" y="121" width="220" height="50" as="geometry" />
        </mxCell>
        <mxCell id="2EXYyBfdQXPqUuGO9ZbP-17" value="instance : void Print() { }" style="rounded=0;whiteSpace=wrap;html=1;fontSize=19;fillColor=#f8cecc;strokeColor=#b85450;" vertex="1" parent="1">
          <mxGeometry x="450" y="171" width="220" height="50" as="geometry" />
        </mxCell>
        <mxCell id="2EXYyBfdQXPqUuGO9ZbP-18" value="Stack() { }" style="rounded=0;whiteSpace=wrap;html=1;fontSize=22;fillColor=#f8cecc;strokeColor=#b85450;" vertex="1" parent="1">
          <mxGeometry x="450" y="221" width="220" height="50" as="geometry" />
        </mxCell>
        <mxCell id="2EXYyBfdQXPqUuGO9ZbP-19" style="edgeStyle=orthogonalEdgeStyle;rounded=0;orthogonalLoop=1;jettySize=auto;html=1;entryX=1;entryY=0.5;entryDx=0;entryDy=0;dashed=1;strokeWidth=2;" edge="1" parent="1" source="2EXYyBfdQXPqUuGO9ZbP-21" target="2EXYyBfdQXPqUuGO9ZbP-22">
          <mxGeometry relative="1" as="geometry">
            <Array as="points">
              <mxPoint x="760" y="500" />
            </Array>
          </mxGeometry>
        </mxCell>
        <mxCell id="2EXYyBfdQXPqUuGO9ZbP-21" value="0XAB013" style="rounded=0;whiteSpace=wrap;html=1;fontSize=21;fontStyle=1;fillColor=#ffe6cc;strokeColor=#d79b00;" vertex="1" parent="1">
          <mxGeometry x="690" y="559" width="120" height="50" as="geometry" />
        </mxCell>
        <mxCell id="2EXYyBfdQXPqUuGO9ZbP-22" value="Demo4 class Object" style="rounded=0;whiteSpace=wrap;html=1;fontSize=19;" vertex="1" parent="1">
          <mxGeometry x="450" y="420" width="220" height="50" as="geometry" />
        </mxCell>
        <mxCell id="2EXYyBfdQXPqUuGO9ZbP-28" value="0XAB013" style="rounded=0;whiteSpace=wrap;html=1;fontSize=21;" vertex="1" parent="1">
          <mxGeometry x="40" y="841" width="200" height="50" as="geometry" />
        </mxCell>
        <mxCell id="2EXYyBfdQXPqUuGO9ZbP-29" value="void: push(int num)" style="rounded=0;whiteSpace=wrap;html=1;fontSize=22;fillColor=#f8cecc;strokeColor=#b85450;" vertex="1" parent="1">
          <mxGeometry x="450" y="271" width="220" height="50" as="geometry" />
        </mxCell>
        <mxCell id="2EXYyBfdQXPqUuGO9ZbP-30" value="void: pop()" style="rounded=0;whiteSpace=wrap;html=1;fontSize=22;fillColor=#f8cecc;strokeColor=#b85450;" vertex="1" parent="1">
          <mxGeometry x="450" y="321" width="220" height="50" as="geometry" />
        </mxCell>
        <mxCell id="2EXYyBfdQXPqUuGO9ZbP-31" value="int : peek( )&amp;nbsp;" style="rounded=0;whiteSpace=wrap;html=1;fontSize=22;fillColor=#f8cecc;strokeColor=#b85450;" vertex="1" parent="1">
          <mxGeometry x="450" y="371" width="220" height="50" as="geometry" />
        </mxCell>
        <mxCell id="2EXYyBfdQXPqUuGO9ZbP-32" value="" style="rounded=0;whiteSpace=wrap;html=1;" vertex="1" parent="1">
          <mxGeometry x="690" y="609" width="220" height="350" as="geometry" />
        </mxCell>
        <mxCell id="2EXYyBfdQXPqUuGO9ZbP-33" style="edgeStyle=orthogonalEdgeStyle;rounded=0;orthogonalLoop=1;jettySize=auto;html=1;entryX=0;entryY=0.5;entryDx=0;entryDy=0;" edge="1" parent="1" source="2EXYyBfdQXPqUuGO9ZbP-34" target="2EXYyBfdQXPqUuGO9ZbP-46">
          <mxGeometry relative="1" as="geometry" />
        </mxCell>
        <mxCell id="2EXYyBfdQXPqUuGO9ZbP-34" value="int[ ] : numbers =&amp;nbsp;0X7E90" style="rounded=0;whiteSpace=wrap;html=1;fontSize=18;fillColor=#d5e8d4;strokeColor=#82b366;" vertex="1" parent="1">
          <mxGeometry x="690" y="610" width="220" height="50" as="geometry" />
        </mxCell>
        <mxCell id="2EXYyBfdQXPqUuGO9ZbP-35" value="instance : void Print() { }" style="rounded=0;whiteSpace=wrap;html=1;fontSize=19;fillColor=#d5e8d4;strokeColor=#82b366;" vertex="1" parent="1">
          <mxGeometry x="690" y="660" width="220" height="50" as="geometry" />
        </mxCell>
        <mxCell id="2EXYyBfdQXPqUuGO9ZbP-36" value="Stack() { }" style="rounded=0;whiteSpace=wrap;html=1;fontSize=22;fillColor=#d5e8d4;strokeColor=#82b366;" vertex="1" parent="1">
          <mxGeometry x="690" y="710" width="220" height="50" as="geometry" />
        </mxCell>
        <mxCell id="2EXYyBfdQXPqUuGO9ZbP-37" value="void: push(int num)" style="rounded=0;whiteSpace=wrap;html=1;fontSize=22;fillColor=#d5e8d4;strokeColor=#82b366;" vertex="1" parent="1">
          <mxGeometry x="690" y="760" width="220" height="50" as="geometry" />
        </mxCell>
        <mxCell id="2EXYyBfdQXPqUuGO9ZbP-38" value="void: pop()" style="rounded=0;whiteSpace=wrap;html=1;fontSize=22;fillColor=#d5e8d4;strokeColor=#82b366;" vertex="1" parent="1">
          <mxGeometry x="690" y="810" width="220" height="50" as="geometry" />
        </mxCell>
        <mxCell id="2EXYyBfdQXPqUuGO9ZbP-39" value="int : peek( )&amp;nbsp;" style="rounded=0;whiteSpace=wrap;html=1;fontSize=22;fillColor=#d5e8d4;strokeColor=#82b366;" vertex="1" parent="1">
          <mxGeometry x="690" y="860" width="220" height="50" as="geometry" />
        </mxCell>
        <mxCell id="2EXYyBfdQXPqUuGO9ZbP-40" value="" style="rounded=0;whiteSpace=wrap;html=1;" vertex="1" parent="1">
          <mxGeometry x="1070" y="110" width="220" height="350" as="geometry" />
        </mxCell>
        <mxCell id="2EXYyBfdQXPqUuGO9ZbP-41" value="0XAC56" style="rounded=0;whiteSpace=wrap;html=1;fontSize=21;fontStyle=1;fillColor=#ffe6cc;strokeColor=#d79b00;" vertex="1" parent="1">
          <mxGeometry x="1070" y="60" width="120" height="50" as="geometry" />
        </mxCell>
        <mxCell id="2EXYyBfdQXPqUuGO9ZbP-42" value="Demo8() { }" style="rounded=0;whiteSpace=wrap;html=1;fontSize=19;" vertex="1" parent="1">
          <mxGeometry x="1070" y="110" width="220" height="50" as="geometry" />
        </mxCell>
        <mxCell id="2EXYyBfdQXPqUuGO9ZbP-43" value="psvm" style="shape=ellipse;html=1;dashed=0;whiteSpace=wrap;perimeter=ellipsePerimeter;fontSize=39;fillColor=#d5e8d4;strokeColor=#82b366;" vertex="1" parent="1">
          <mxGeometry x="1110" y="260" width="140" height="90" as="geometry" />
        </mxCell>
        <mxCell id="2EXYyBfdQXPqUuGO9ZbP-44" style="edgeStyle=orthogonalEdgeStyle;rounded=0;orthogonalLoop=1;jettySize=auto;html=1;entryX=0.5;entryY=0;entryDx=0;entryDy=0;" edge="1" parent="1" source="2EXYyBfdQXPqUuGO9ZbP-45" target="2EXYyBfdQXPqUuGO9ZbP-41">
          <mxGeometry relative="1" as="geometry">
            <Array as="points">
              <mxPoint x="1690" y="-70" />
              <mxPoint x="1130" y="-70" />
            </Array>
          </mxGeometry>
        </mxCell>
        <mxCell id="2EXYyBfdQXPqUuGO9ZbP-45" value="Demo8.class" style="rounded=0;whiteSpace=wrap;html=1;fontSize=23;" vertex="1" parent="1">
          <mxGeometry x="1580" y="550" width="170" height="170" as="geometry" />
        </mxCell>
        <mxCell id="2EXYyBfdQXPqUuGO9ZbP-46" value="0X7E90" style="rounded=0;whiteSpace=wrap;html=1;fillColor=#ffe6cc;strokeColor=#d79b00;fontSize=16;fontStyle=1" vertex="1" parent="1">
          <mxGeometry x="1070" y="615" width="100" height="40" as="geometry" />
        </mxCell>
        <mxCell id="2EXYyBfdQXPqUuGO9ZbP-47" value="" style="rounded=0;whiteSpace=wrap;html=1;" vertex="1" parent="1">
          <mxGeometry x="1070" y="655" width="20" height="40" as="geometry" />
        </mxCell>
      </root>
    </mxGraphModel>
  </diagram>
  <diagram name="page-3" id="xqEVTrPQ5a3Dl3rxVu-7">
    <mxGraphModel dx="1793" dy="2154" grid="1" gridSize="10" guides="1" tooltips="1" connect="1" arrows="1" fold="1" page="1" pageScale="1" pageWidth="850" pageHeight="1100" math="0" shadow="0">
      <root>
        <mxCell id="qiTzWWOCeDhqCO6XvKXr-0" />
        <mxCell id="qiTzWWOCeDhqCO6XvKXr-1" parent="qiTzWWOCeDhqCO6XvKXr-0" />
        <mxCell id="qiTzWWOCeDhqCO6XvKXr-2" value="" style="rounded=0;whiteSpace=wrap;html=1;" vertex="1" parent="qiTzWWOCeDhqCO6XvKXr-1">
          <mxGeometry x="40" y="160" width="1030" height="820" as="geometry" />
        </mxCell>
        <mxCell id="qiTzWWOCeDhqCO6XvKXr-3" value="" style="rounded=0;whiteSpace=wrap;html=1;" vertex="1" parent="qiTzWWOCeDhqCO6XvKXr-1">
          <mxGeometry x="240" y="10" width="1210" height="530" as="geometry" />
        </mxCell>
        <mxCell id="qiTzWWOCeDhqCO6XvKXr-4" value="" style="rounded=0;whiteSpace=wrap;html=1;" vertex="1" parent="qiTzWWOCeDhqCO6XvKXr-1">
          <mxGeometry x="240" y="540" width="1210" height="440" as="geometry" />
        </mxCell>
        <mxCell id="qiTzWWOCeDhqCO6XvKXr-5" style="edgeStyle=orthogonalEdgeStyle;rounded=0;orthogonalLoop=1;jettySize=auto;html=1;entryX=0;entryY=0.5;entryDx=0;entryDy=0;" edge="1" parent="qiTzWWOCeDhqCO6XvKXr-1" source="qiTzWWOCeDhqCO6XvKXr-6" target="qiTzWWOCeDhqCO6XvKXr-22">
          <mxGeometry relative="1" as="geometry" />
        </mxCell>
        <mxCell id="qiTzWWOCeDhqCO6XvKXr-6" value="s1 =&amp;nbsp;0XAB013" style="rounded=0;whiteSpace=wrap;html=1;fontSize=22;" vertex="1" parent="qiTzWWOCeDhqCO6XvKXr-1">
          <mxGeometry x="40" y="891" width="200" height="50" as="geometry" />
        </mxCell>
        <mxCell id="qiTzWWOCeDhqCO6XvKXr-7" style="edgeStyle=orthogonalEdgeStyle;rounded=0;orthogonalLoop=1;jettySize=auto;html=1;entryX=0;entryY=0.5;entryDx=0;entryDy=0;dashed=1;strokeWidth=2;" edge="1" parent="qiTzWWOCeDhqCO6XvKXr-1" source="qiTzWWOCeDhqCO6XvKXr-8" target="qiTzWWOCeDhqCO6XvKXr-12">
          <mxGeometry relative="1" as="geometry" />
        </mxCell>
        <mxCell id="qiTzWWOCeDhqCO6XvKXr-8" value="String[ ]&amp;nbsp; args =&amp;nbsp;" style="rounded=0;whiteSpace=wrap;html=1;fontSize=21;" vertex="1" parent="qiTzWWOCeDhqCO6XvKXr-1">
          <mxGeometry x="40" y="791" width="200" height="50" as="geometry" />
        </mxCell>
        <mxCell id="qiTzWWOCeDhqCO6XvKXr-9" style="edgeStyle=orthogonalEdgeStyle;rounded=0;orthogonalLoop=1;jettySize=auto;html=1;entryX=0;entryY=0.5;entryDx=0;entryDy=0;dashed=1;strokeWidth=2;exitX=1;exitY=0.5;exitDx=0;exitDy=0;" edge="1" parent="qiTzWWOCeDhqCO6XvKXr-1" source="qiTzWWOCeDhqCO6XvKXr-10" target="qiTzWWOCeDhqCO6XvKXr-17">
          <mxGeometry relative="1" as="geometry">
            <Array as="points">
              <mxPoint x="300" y="854" />
              <mxPoint x="300" y="95" />
            </Array>
          </mxGeometry>
        </mxCell>
        <mxCell id="qiTzWWOCeDhqCO6XvKXr-10" value="RCP =&amp;nbsp;0XAB987" style="rounded=0;whiteSpace=wrap;html=1;fontSize=21;" vertex="1" parent="qiTzWWOCeDhqCO6XvKXr-1">
          <mxGeometry x="40" y="741" width="200" height="50" as="geometry" />
        </mxCell>
        <mxCell id="qiTzWWOCeDhqCO6XvKXr-11" value="" style="rounded=0;whiteSpace=wrap;html=1;" vertex="1" parent="qiTzWWOCeDhqCO6XvKXr-1">
          <mxGeometry x="340" y="831" width="10" height="39" as="geometry" />
        </mxCell>
        <mxCell id="qiTzWWOCeDhqCO6XvKXr-12" value="0XAC67" style="rounded=0;whiteSpace=wrap;html=1;fillColor=#fff2cc;strokeColor=#d6b656;fontSize=20;fontStyle=1" vertex="1" parent="qiTzWWOCeDhqCO6XvKXr-1">
          <mxGeometry x="340" y="801" width="100" height="30" as="geometry" />
        </mxCell>
        <mxCell id="qiTzWWOCeDhqCO6XvKXr-13" style="edgeStyle=orthogonalEdgeStyle;rounded=0;orthogonalLoop=1;jettySize=auto;html=1;entryX=0.5;entryY=0;entryDx=0;entryDy=0;" edge="1" parent="qiTzWWOCeDhqCO6XvKXr-1" source="qiTzWWOCeDhqCO6XvKXr-15" target="qiTzWWOCeDhqCO6XvKXr-17">
          <mxGeometry relative="1" as="geometry">
            <Array as="points">
              <mxPoint x="1990" y="-140" />
              <mxPoint x="510" y="-140" />
            </Array>
          </mxGeometry>
        </mxCell>
        <mxCell id="qiTzWWOCeDhqCO6XvKXr-14" value="Text" style="edgeLabel;html=1;align=center;verticalAlign=middle;resizable=0;points=[];" vertex="1" connectable="0" parent="qiTzWWOCeDhqCO6XvKXr-13">
          <mxGeometry x="-0.4043" y="5" relative="1" as="geometry">
            <mxPoint y="1" as="offset" />
          </mxGeometry>
        </mxCell>
        <mxCell id="qiTzWWOCeDhqCO6XvKXr-15" value="Stack.class" style="rounded=0;whiteSpace=wrap;html=1;fontSize=23;" vertex="1" parent="qiTzWWOCeDhqCO6XvKXr-1">
          <mxGeometry x="1910" y="559" width="170" height="170" as="geometry" />
        </mxCell>
        <mxCell id="qiTzWWOCeDhqCO6XvKXr-16" value="" style="rounded=0;whiteSpace=wrap;html=1;" vertex="1" parent="qiTzWWOCeDhqCO6XvKXr-1">
          <mxGeometry x="450" y="120" width="220" height="350" as="geometry" />
        </mxCell>
        <mxCell id="qiTzWWOCeDhqCO6XvKXr-17" value="0XAB987" style="rounded=0;whiteSpace=wrap;html=1;fontSize=21;fontStyle=1;fillColor=#ffe6cc;strokeColor=#d79b00;" vertex="1" parent="qiTzWWOCeDhqCO6XvKXr-1">
          <mxGeometry x="450" y="70" width="120" height="50" as="geometry" />
        </mxCell>
        <mxCell id="qiTzWWOCeDhqCO6XvKXr-18" value="int[ ] : numbers" style="rounded=0;whiteSpace=wrap;html=1;fontSize=22;fillColor=#f8cecc;strokeColor=#b85450;" vertex="1" parent="qiTzWWOCeDhqCO6XvKXr-1">
          <mxGeometry x="450" y="121" width="220" height="50" as="geometry" />
        </mxCell>
        <mxCell id="qiTzWWOCeDhqCO6XvKXr-19" value="instance : void Print() { }" style="rounded=0;whiteSpace=wrap;html=1;fontSize=19;fillColor=#f8cecc;strokeColor=#b85450;" vertex="1" parent="qiTzWWOCeDhqCO6XvKXr-1">
          <mxGeometry x="450" y="171" width="220" height="50" as="geometry" />
        </mxCell>
        <mxCell id="qiTzWWOCeDhqCO6XvKXr-20" value="Stack() { }" style="rounded=0;whiteSpace=wrap;html=1;fontSize=22;fillColor=#f8cecc;strokeColor=#b85450;" vertex="1" parent="qiTzWWOCeDhqCO6XvKXr-1">
          <mxGeometry x="450" y="221" width="220" height="50" as="geometry" />
        </mxCell>
        <mxCell id="qiTzWWOCeDhqCO6XvKXr-21" style="edgeStyle=orthogonalEdgeStyle;rounded=0;orthogonalLoop=1;jettySize=auto;html=1;entryX=1;entryY=0.5;entryDx=0;entryDy=0;dashed=1;strokeWidth=2;" edge="1" parent="qiTzWWOCeDhqCO6XvKXr-1" source="qiTzWWOCeDhqCO6XvKXr-22" target="qiTzWWOCeDhqCO6XvKXr-23">
          <mxGeometry relative="1" as="geometry">
            <Array as="points">
              <mxPoint x="760" y="500" />
            </Array>
          </mxGeometry>
        </mxCell>
        <mxCell id="qiTzWWOCeDhqCO6XvKXr-22" value="0XAB013" style="rounded=0;whiteSpace=wrap;html=1;fontSize=21;fontStyle=1;fillColor=#ffe6cc;strokeColor=#d79b00;" vertex="1" parent="qiTzWWOCeDhqCO6XvKXr-1">
          <mxGeometry x="690" y="559" width="120" height="50" as="geometry" />
        </mxCell>
        <mxCell id="qiTzWWOCeDhqCO6XvKXr-23" value="Demo4 class Object" style="rounded=0;whiteSpace=wrap;html=1;fontSize=19;" vertex="1" parent="qiTzWWOCeDhqCO6XvKXr-1">
          <mxGeometry x="450" y="420" width="220" height="50" as="geometry" />
        </mxCell>
        <mxCell id="qiTzWWOCeDhqCO6XvKXr-24" value="0XAB013" style="rounded=0;whiteSpace=wrap;html=1;fontSize=21;" vertex="1" parent="qiTzWWOCeDhqCO6XvKXr-1">
          <mxGeometry x="40" y="841" width="200" height="50" as="geometry" />
        </mxCell>
        <mxCell id="qiTzWWOCeDhqCO6XvKXr-25" value="void: push(int num)" style="rounded=0;whiteSpace=wrap;html=1;fontSize=22;fillColor=#f8cecc;strokeColor=#b85450;" vertex="1" parent="qiTzWWOCeDhqCO6XvKXr-1">
          <mxGeometry x="450" y="271" width="220" height="50" as="geometry" />
        </mxCell>
        <mxCell id="qiTzWWOCeDhqCO6XvKXr-26" value="void: pop()" style="rounded=0;whiteSpace=wrap;html=1;fontSize=22;fillColor=#f8cecc;strokeColor=#b85450;" vertex="1" parent="qiTzWWOCeDhqCO6XvKXr-1">
          <mxGeometry x="450" y="321" width="220" height="50" as="geometry" />
        </mxCell>
        <mxCell id="qiTzWWOCeDhqCO6XvKXr-27" value="int : peek( )&amp;nbsp;" style="rounded=0;whiteSpace=wrap;html=1;fontSize=22;fillColor=#f8cecc;strokeColor=#b85450;" vertex="1" parent="qiTzWWOCeDhqCO6XvKXr-1">
          <mxGeometry x="450" y="371" width="220" height="50" as="geometry" />
        </mxCell>
        <mxCell id="qiTzWWOCeDhqCO6XvKXr-28" value="" style="rounded=0;whiteSpace=wrap;html=1;" vertex="1" parent="qiTzWWOCeDhqCO6XvKXr-1">
          <mxGeometry x="690" y="609" width="220" height="350" as="geometry" />
        </mxCell>
        <mxCell id="eD_xIqxlDhDWrughY-LN-3" style="edgeStyle=orthogonalEdgeStyle;rounded=0;orthogonalLoop=1;jettySize=auto;html=1;entryX=0;entryY=0.5;entryDx=0;entryDy=0;" edge="1" parent="qiTzWWOCeDhqCO6XvKXr-1" source="qiTzWWOCeDhqCO6XvKXr-30" target="eD_xIqxlDhDWrughY-LN-0">
          <mxGeometry relative="1" as="geometry" />
        </mxCell>
        <mxCell id="qiTzWWOCeDhqCO6XvKXr-30" value="int[ ] : numbers =&amp;nbsp;0X7A1" style="rounded=0;whiteSpace=wrap;html=1;fontSize=18;fillColor=#d5e8d4;strokeColor=#82b366;" vertex="1" parent="qiTzWWOCeDhqCO6XvKXr-1">
          <mxGeometry x="690" y="610" width="220" height="50" as="geometry" />
        </mxCell>
        <mxCell id="qiTzWWOCeDhqCO6XvKXr-31" value="instance : void Print() { }" style="rounded=0;whiteSpace=wrap;html=1;fontSize=19;fillColor=#d5e8d4;strokeColor=#82b366;" vertex="1" parent="qiTzWWOCeDhqCO6XvKXr-1">
          <mxGeometry x="690" y="660" width="220" height="50" as="geometry" />
        </mxCell>
        <mxCell id="qiTzWWOCeDhqCO6XvKXr-32" value="Stack() { }" style="rounded=0;whiteSpace=wrap;html=1;fontSize=22;fillColor=#d5e8d4;strokeColor=#82b366;" vertex="1" parent="qiTzWWOCeDhqCO6XvKXr-1">
          <mxGeometry x="690" y="710" width="220" height="50" as="geometry" />
        </mxCell>
        <mxCell id="qiTzWWOCeDhqCO6XvKXr-33" value="void: push(int num = 10)" style="rounded=0;whiteSpace=wrap;html=1;fontSize=20;fillColor=#d5e8d4;strokeColor=#82b366;" vertex="1" parent="qiTzWWOCeDhqCO6XvKXr-1">
          <mxGeometry x="690" y="760" width="220" height="50" as="geometry" />
        </mxCell>
        <mxCell id="qiTzWWOCeDhqCO6XvKXr-34" value="void: pop()" style="rounded=0;whiteSpace=wrap;html=1;fontSize=22;fillColor=#d5e8d4;strokeColor=#82b366;" vertex="1" parent="qiTzWWOCeDhqCO6XvKXr-1">
          <mxGeometry x="690" y="810" width="220" height="50" as="geometry" />
        </mxCell>
        <mxCell id="qiTzWWOCeDhqCO6XvKXr-35" value="int : peek( )&amp;nbsp;" style="rounded=0;whiteSpace=wrap;html=1;fontSize=22;fillColor=#d5e8d4;strokeColor=#82b366;" vertex="1" parent="qiTzWWOCeDhqCO6XvKXr-1">
          <mxGeometry x="690" y="860" width="220" height="50" as="geometry" />
        </mxCell>
        <mxCell id="qiTzWWOCeDhqCO6XvKXr-36" value="" style="rounded=0;whiteSpace=wrap;html=1;" vertex="1" parent="qiTzWWOCeDhqCO6XvKXr-1">
          <mxGeometry x="1070" y="110" width="220" height="350" as="geometry" />
        </mxCell>
        <mxCell id="qiTzWWOCeDhqCO6XvKXr-37" value="0XAC56" style="rounded=0;whiteSpace=wrap;html=1;fontSize=21;fontStyle=1;fillColor=#ffe6cc;strokeColor=#d79b00;" vertex="1" parent="qiTzWWOCeDhqCO6XvKXr-1">
          <mxGeometry x="1070" y="60" width="120" height="50" as="geometry" />
        </mxCell>
        <mxCell id="qiTzWWOCeDhqCO6XvKXr-38" value="Demo8() { }" style="rounded=0;whiteSpace=wrap;html=1;fontSize=19;" vertex="1" parent="qiTzWWOCeDhqCO6XvKXr-1">
          <mxGeometry x="1070" y="110" width="220" height="50" as="geometry" />
        </mxCell>
        <mxCell id="qiTzWWOCeDhqCO6XvKXr-39" value="psvm" style="shape=ellipse;html=1;dashed=0;whiteSpace=wrap;perimeter=ellipsePerimeter;fontSize=39;fillColor=#d5e8d4;strokeColor=#82b366;" vertex="1" parent="qiTzWWOCeDhqCO6XvKXr-1">
          <mxGeometry x="1110" y="260" width="140" height="90" as="geometry" />
        </mxCell>
        <mxCell id="qiTzWWOCeDhqCO6XvKXr-40" style="edgeStyle=orthogonalEdgeStyle;rounded=0;orthogonalLoop=1;jettySize=auto;html=1;entryX=0.5;entryY=0;entryDx=0;entryDy=0;" edge="1" parent="qiTzWWOCeDhqCO6XvKXr-1" source="qiTzWWOCeDhqCO6XvKXr-41" target="qiTzWWOCeDhqCO6XvKXr-37">
          <mxGeometry relative="1" as="geometry">
            <Array as="points">
              <mxPoint x="1690" y="-70" />
              <mxPoint x="1130" y="-70" />
            </Array>
          </mxGeometry>
        </mxCell>
        <mxCell id="qiTzWWOCeDhqCO6XvKXr-41" value="Demo8.class" style="rounded=0;whiteSpace=wrap;html=1;fontSize=23;" vertex="1" parent="qiTzWWOCeDhqCO6XvKXr-1">
          <mxGeometry x="1580" y="550" width="170" height="170" as="geometry" />
        </mxCell>
        <mxCell id="qiTzWWOCeDhqCO6XvKXr-42" value="0X7E90" style="rounded=0;whiteSpace=wrap;html=1;fillColor=#ffe6cc;strokeColor=#d79b00;fontSize=16;fontStyle=1" vertex="1" parent="qiTzWWOCeDhqCO6XvKXr-1">
          <mxGeometry x="1070" y="615" width="100" height="40" as="geometry" />
        </mxCell>
        <mxCell id="qiTzWWOCeDhqCO6XvKXr-43" value="" style="rounded=0;whiteSpace=wrap;html=1;" vertex="1" parent="qiTzWWOCeDhqCO6XvKXr-1">
          <mxGeometry x="1070" y="655" width="20" height="40" as="geometry" />
        </mxCell>
        <mxCell id="eD_xIqxlDhDWrughY-LN-0" value="0X7A1" style="rounded=0;whiteSpace=wrap;html=1;fillColor=#ffe6cc;strokeColor=#d79b00;fontSize=16;fontStyle=1" vertex="1" parent="qiTzWWOCeDhqCO6XvKXr-1">
          <mxGeometry x="1070" y="770" width="100" height="40" as="geometry" />
        </mxCell>
        <mxCell id="eD_xIqxlDhDWrughY-LN-1" value="10" style="rounded=0;whiteSpace=wrap;html=1;fontSize=21;" vertex="1" parent="qiTzWWOCeDhqCO6XvKXr-1">
          <mxGeometry x="1070" y="810" width="40" height="40" as="geometry" />
        </mxCell>
        <mxCell id="JQCUxDoZu-aJVFua8OIc-0" value="" style="rounded=0;whiteSpace=wrap;html=1;" vertex="1" parent="qiTzWWOCeDhqCO6XvKXr-1">
          <mxGeometry x="40" y="554" width="200" height="186" as="geometry" />
        </mxCell>
        <mxCell id="JQCUxDoZu-aJVFua8OIc-1" value="this =&amp;nbsp;0XAB013" style="rounded=0;whiteSpace=wrap;html=1;fontSize=19;" vertex="1" parent="qiTzWWOCeDhqCO6XvKXr-1">
          <mxGeometry x="40" y="554" width="200" height="40" as="geometry" />
        </mxCell>
        <mxCell id="aUtVFNUOyaysofkF3Lbp-0" style="edgeStyle=orthogonalEdgeStyle;rounded=0;orthogonalLoop=1;jettySize=auto;html=1;entryX=1;entryY=0.25;entryDx=0;entryDy=0;" edge="1" parent="qiTzWWOCeDhqCO6XvKXr-1" source="JQCUxDoZu-aJVFua8OIc-2" target="eD_xIqxlDhDWrughY-LN-0">
          <mxGeometry relative="1" as="geometry">
            <Array as="points">
              <mxPoint x="270" y="654" />
              <mxPoint x="270" y="510" />
              <mxPoint x="1190" y="510" />
              <mxPoint x="1190" y="780" />
            </Array>
          </mxGeometry>
        </mxCell>
        <mxCell id="JQCUxDoZu-aJVFua8OIc-2" value="int [ ] newNum" style="rounded=0;whiteSpace=wrap;html=1;fontSize=19;" vertex="1" parent="qiTzWWOCeDhqCO6XvKXr-1">
          <mxGeometry x="40" y="634" width="200" height="40" as="geometry" />
        </mxCell>
        <mxCell id="JQCUxDoZu-aJVFua8OIc-3" value="int numbers" style="rounded=0;whiteSpace=wrap;html=1;fontSize=19;" vertex="1" parent="qiTzWWOCeDhqCO6XvKXr-1">
          <mxGeometry x="40" y="594" width="200" height="40" as="geometry" />
        </mxCell>
      </root>
    </mxGraphModel>
  </diagram>
  <diagram name="page-4" id="XT5G2z4KeTNGR1sQXc27">
    <mxGraphModel dx="1434" dy="1943" grid="1" gridSize="10" guides="1" tooltips="1" connect="1" arrows="1" fold="1" page="1" pageScale="1" pageWidth="850" pageHeight="1100" math="0" shadow="0">
      <root>
        <mxCell id="dSucJgf5NAAdSh777Uda-0" />
        <mxCell id="dSucJgf5NAAdSh777Uda-1" parent="dSucJgf5NAAdSh777Uda-0" />
        <mxCell id="dSucJgf5NAAdSh777Uda-2" value="" style="rounded=0;whiteSpace=wrap;html=1;" vertex="1" parent="dSucJgf5NAAdSh777Uda-1">
          <mxGeometry x="40" y="160" width="1030" height="820" as="geometry" />
        </mxCell>
        <mxCell id="dSucJgf5NAAdSh777Uda-3" value="" style="rounded=0;whiteSpace=wrap;html=1;" vertex="1" parent="dSucJgf5NAAdSh777Uda-1">
          <mxGeometry x="240" y="10" width="1210" height="530" as="geometry" />
        </mxCell>
        <mxCell id="dSucJgf5NAAdSh777Uda-4" value="" style="rounded=0;whiteSpace=wrap;html=1;" vertex="1" parent="dSucJgf5NAAdSh777Uda-1">
          <mxGeometry x="240" y="540" width="1210" height="440" as="geometry" />
        </mxCell>
        <mxCell id="dSucJgf5NAAdSh777Uda-5" style="edgeStyle=orthogonalEdgeStyle;rounded=0;orthogonalLoop=1;jettySize=auto;html=1;entryX=0;entryY=0.5;entryDx=0;entryDy=0;" edge="1" parent="dSucJgf5NAAdSh777Uda-1" source="dSucJgf5NAAdSh777Uda-6" target="dSucJgf5NAAdSh777Uda-22">
          <mxGeometry relative="1" as="geometry" />
        </mxCell>
        <mxCell id="dSucJgf5NAAdSh777Uda-6" value="s1 =&amp;nbsp;0XAB013" style="rounded=0;whiteSpace=wrap;html=1;fontSize=22;" vertex="1" parent="dSucJgf5NAAdSh777Uda-1">
          <mxGeometry x="40" y="891" width="200" height="50" as="geometry" />
        </mxCell>
        <mxCell id="dSucJgf5NAAdSh777Uda-7" style="edgeStyle=orthogonalEdgeStyle;rounded=0;orthogonalLoop=1;jettySize=auto;html=1;entryX=0;entryY=0.5;entryDx=0;entryDy=0;dashed=1;strokeWidth=2;" edge="1" parent="dSucJgf5NAAdSh777Uda-1" source="dSucJgf5NAAdSh777Uda-8" target="dSucJgf5NAAdSh777Uda-12">
          <mxGeometry relative="1" as="geometry" />
        </mxCell>
        <mxCell id="dSucJgf5NAAdSh777Uda-8" value="String[ ]&amp;nbsp; args =&amp;nbsp;" style="rounded=0;whiteSpace=wrap;html=1;fontSize=21;" vertex="1" parent="dSucJgf5NAAdSh777Uda-1">
          <mxGeometry x="40" y="791" width="200" height="50" as="geometry" />
        </mxCell>
        <mxCell id="dSucJgf5NAAdSh777Uda-9" style="edgeStyle=orthogonalEdgeStyle;rounded=0;orthogonalLoop=1;jettySize=auto;html=1;entryX=0;entryY=0.5;entryDx=0;entryDy=0;dashed=1;strokeWidth=2;exitX=1;exitY=0.5;exitDx=0;exitDy=0;" edge="1" parent="dSucJgf5NAAdSh777Uda-1" source="dSucJgf5NAAdSh777Uda-10" target="dSucJgf5NAAdSh777Uda-17">
          <mxGeometry relative="1" as="geometry">
            <Array as="points">
              <mxPoint x="300" y="854" />
              <mxPoint x="300" y="95" />
            </Array>
          </mxGeometry>
        </mxCell>
        <mxCell id="dSucJgf5NAAdSh777Uda-10" value="RCP =&amp;nbsp;0XAB987" style="rounded=0;whiteSpace=wrap;html=1;fontSize=21;" vertex="1" parent="dSucJgf5NAAdSh777Uda-1">
          <mxGeometry x="40" y="741" width="200" height="50" as="geometry" />
        </mxCell>
        <mxCell id="dSucJgf5NAAdSh777Uda-11" value="" style="rounded=0;whiteSpace=wrap;html=1;" vertex="1" parent="dSucJgf5NAAdSh777Uda-1">
          <mxGeometry x="340" y="831" width="10" height="39" as="geometry" />
        </mxCell>
        <mxCell id="dSucJgf5NAAdSh777Uda-12" value="0XAC67" style="rounded=0;whiteSpace=wrap;html=1;fillColor=#fff2cc;strokeColor=#d6b656;fontSize=20;fontStyle=1" vertex="1" parent="dSucJgf5NAAdSh777Uda-1">
          <mxGeometry x="340" y="801" width="100" height="30" as="geometry" />
        </mxCell>
        <mxCell id="dSucJgf5NAAdSh777Uda-13" style="edgeStyle=orthogonalEdgeStyle;rounded=0;orthogonalLoop=1;jettySize=auto;html=1;entryX=0.5;entryY=0;entryDx=0;entryDy=0;" edge="1" parent="dSucJgf5NAAdSh777Uda-1" source="dSucJgf5NAAdSh777Uda-15" target="dSucJgf5NAAdSh777Uda-17">
          <mxGeometry relative="1" as="geometry">
            <Array as="points">
              <mxPoint x="1990" y="-140" />
              <mxPoint x="510" y="-140" />
            </Array>
          </mxGeometry>
        </mxCell>
        <mxCell id="dSucJgf5NAAdSh777Uda-14" value="Text" style="edgeLabel;html=1;align=center;verticalAlign=middle;resizable=0;points=[];" vertex="1" connectable="0" parent="dSucJgf5NAAdSh777Uda-13">
          <mxGeometry x="-0.4043" y="5" relative="1" as="geometry">
            <mxPoint y="1" as="offset" />
          </mxGeometry>
        </mxCell>
        <mxCell id="dSucJgf5NAAdSh777Uda-15" value="Stack.class" style="rounded=0;whiteSpace=wrap;html=1;fontSize=23;" vertex="1" parent="dSucJgf5NAAdSh777Uda-1">
          <mxGeometry x="1910" y="559" width="170" height="170" as="geometry" />
        </mxCell>
        <mxCell id="dSucJgf5NAAdSh777Uda-16" value="" style="rounded=0;whiteSpace=wrap;html=1;" vertex="1" parent="dSucJgf5NAAdSh777Uda-1">
          <mxGeometry x="450" y="120" width="220" height="350" as="geometry" />
        </mxCell>
        <mxCell id="dSucJgf5NAAdSh777Uda-17" value="0XAB987" style="rounded=0;whiteSpace=wrap;html=1;fontSize=21;fontStyle=1;fillColor=#ffe6cc;strokeColor=#d79b00;" vertex="1" parent="dSucJgf5NAAdSh777Uda-1">
          <mxGeometry x="450" y="70" width="120" height="50" as="geometry" />
        </mxCell>
        <mxCell id="dSucJgf5NAAdSh777Uda-18" value="int[ ] : numbers" style="rounded=0;whiteSpace=wrap;html=1;fontSize=22;fillColor=#f8cecc;strokeColor=#b85450;" vertex="1" parent="dSucJgf5NAAdSh777Uda-1">
          <mxGeometry x="450" y="121" width="220" height="50" as="geometry" />
        </mxCell>
        <mxCell id="dSucJgf5NAAdSh777Uda-19" value="instance : void Print() { }" style="rounded=0;whiteSpace=wrap;html=1;fontSize=19;fillColor=#f8cecc;strokeColor=#b85450;" vertex="1" parent="dSucJgf5NAAdSh777Uda-1">
          <mxGeometry x="450" y="171" width="220" height="50" as="geometry" />
        </mxCell>
        <mxCell id="dSucJgf5NAAdSh777Uda-20" value="Stack() { }" style="rounded=0;whiteSpace=wrap;html=1;fontSize=22;fillColor=#f8cecc;strokeColor=#b85450;" vertex="1" parent="dSucJgf5NAAdSh777Uda-1">
          <mxGeometry x="450" y="221" width="220" height="50" as="geometry" />
        </mxCell>
        <mxCell id="dSucJgf5NAAdSh777Uda-21" style="edgeStyle=orthogonalEdgeStyle;rounded=0;orthogonalLoop=1;jettySize=auto;html=1;entryX=1;entryY=0.5;entryDx=0;entryDy=0;dashed=1;strokeWidth=2;" edge="1" parent="dSucJgf5NAAdSh777Uda-1" source="dSucJgf5NAAdSh777Uda-22" target="dSucJgf5NAAdSh777Uda-23">
          <mxGeometry relative="1" as="geometry">
            <Array as="points">
              <mxPoint x="760" y="500" />
            </Array>
          </mxGeometry>
        </mxCell>
        <mxCell id="dSucJgf5NAAdSh777Uda-22" value="0XAB013" style="rounded=0;whiteSpace=wrap;html=1;fontSize=21;fontStyle=1;fillColor=#ffe6cc;strokeColor=#d79b00;" vertex="1" parent="dSucJgf5NAAdSh777Uda-1">
          <mxGeometry x="690" y="559" width="120" height="50" as="geometry" />
        </mxCell>
        <mxCell id="dSucJgf5NAAdSh777Uda-23" value="Demo4 class Object" style="rounded=0;whiteSpace=wrap;html=1;fontSize=19;" vertex="1" parent="dSucJgf5NAAdSh777Uda-1">
          <mxGeometry x="450" y="420" width="220" height="50" as="geometry" />
        </mxCell>
        <mxCell id="dSucJgf5NAAdSh777Uda-24" value="0XAB013" style="rounded=0;whiteSpace=wrap;html=1;fontSize=21;" vertex="1" parent="dSucJgf5NAAdSh777Uda-1">
          <mxGeometry x="40" y="841" width="200" height="50" as="geometry" />
        </mxCell>
        <mxCell id="dSucJgf5NAAdSh777Uda-25" value="void: push(int num)" style="rounded=0;whiteSpace=wrap;html=1;fontSize=22;fillColor=#f8cecc;strokeColor=#b85450;" vertex="1" parent="dSucJgf5NAAdSh777Uda-1">
          <mxGeometry x="450" y="271" width="220" height="50" as="geometry" />
        </mxCell>
        <mxCell id="dSucJgf5NAAdSh777Uda-26" value="void: pop()" style="rounded=0;whiteSpace=wrap;html=1;fontSize=22;fillColor=#f8cecc;strokeColor=#b85450;" vertex="1" parent="dSucJgf5NAAdSh777Uda-1">
          <mxGeometry x="450" y="321" width="220" height="50" as="geometry" />
        </mxCell>
        <mxCell id="dSucJgf5NAAdSh777Uda-27" value="int : peek( )&amp;nbsp;" style="rounded=0;whiteSpace=wrap;html=1;fontSize=22;fillColor=#f8cecc;strokeColor=#b85450;" vertex="1" parent="dSucJgf5NAAdSh777Uda-1">
          <mxGeometry x="450" y="371" width="220" height="50" as="geometry" />
        </mxCell>
        <mxCell id="dSucJgf5NAAdSh777Uda-28" value="" style="rounded=0;whiteSpace=wrap;html=1;" vertex="1" parent="dSucJgf5NAAdSh777Uda-1">
          <mxGeometry x="690" y="609" width="220" height="350" as="geometry" />
        </mxCell>
        <mxCell id="dSucJgf5NAAdSh777Uda-30" value="int[ ] : numbers =&amp;nbsp;0XC80" style="rounded=0;whiteSpace=wrap;html=1;fontSize=18;fillColor=#d5e8d4;strokeColor=#82b366;" vertex="1" parent="dSucJgf5NAAdSh777Uda-1">
          <mxGeometry x="690" y="610" width="220" height="50" as="geometry" />
        </mxCell>
        <mxCell id="dSucJgf5NAAdSh777Uda-31" value="instance : void Print() { }" style="rounded=0;whiteSpace=wrap;html=1;fontSize=19;fillColor=#d5e8d4;strokeColor=#82b366;" vertex="1" parent="dSucJgf5NAAdSh777Uda-1">
          <mxGeometry x="690" y="660" width="220" height="50" as="geometry" />
        </mxCell>
        <mxCell id="dSucJgf5NAAdSh777Uda-32" value="Stack() { }" style="rounded=0;whiteSpace=wrap;html=1;fontSize=22;fillColor=#d5e8d4;strokeColor=#82b366;" vertex="1" parent="dSucJgf5NAAdSh777Uda-1">
          <mxGeometry x="690" y="710" width="220" height="50" as="geometry" />
        </mxCell>
        <mxCell id="dSucJgf5NAAdSh777Uda-33" value="void: push(int num = 10)" style="rounded=0;whiteSpace=wrap;html=1;fontSize=20;fillColor=#d5e8d4;strokeColor=#82b366;" vertex="1" parent="dSucJgf5NAAdSh777Uda-1">
          <mxGeometry x="690" y="760" width="220" height="50" as="geometry" />
        </mxCell>
        <mxCell id="dSucJgf5NAAdSh777Uda-34" value="void: pop()" style="rounded=0;whiteSpace=wrap;html=1;fontSize=22;fillColor=#d5e8d4;strokeColor=#82b366;" vertex="1" parent="dSucJgf5NAAdSh777Uda-1">
          <mxGeometry x="690" y="810" width="220" height="50" as="geometry" />
        </mxCell>
        <mxCell id="dSucJgf5NAAdSh777Uda-35" value="int : peek( )&amp;nbsp;" style="rounded=0;whiteSpace=wrap;html=1;fontSize=22;fillColor=#d5e8d4;strokeColor=#82b366;" vertex="1" parent="dSucJgf5NAAdSh777Uda-1">
          <mxGeometry x="690" y="860" width="220" height="50" as="geometry" />
        </mxCell>
        <mxCell id="dSucJgf5NAAdSh777Uda-36" value="" style="rounded=0;whiteSpace=wrap;html=1;" vertex="1" parent="dSucJgf5NAAdSh777Uda-1">
          <mxGeometry x="1070" y="110" width="220" height="350" as="geometry" />
        </mxCell>
        <mxCell id="dSucJgf5NAAdSh777Uda-37" value="0XAC56" style="rounded=0;whiteSpace=wrap;html=1;fontSize=21;fontStyle=1;fillColor=#ffe6cc;strokeColor=#d79b00;" vertex="1" parent="dSucJgf5NAAdSh777Uda-1">
          <mxGeometry x="1070" y="60" width="120" height="50" as="geometry" />
        </mxCell>
        <mxCell id="dSucJgf5NAAdSh777Uda-38" value="Demo8() { }" style="rounded=0;whiteSpace=wrap;html=1;fontSize=19;" vertex="1" parent="dSucJgf5NAAdSh777Uda-1">
          <mxGeometry x="1070" y="110" width="220" height="50" as="geometry" />
        </mxCell>
        <mxCell id="dSucJgf5NAAdSh777Uda-39" value="psvm" style="shape=ellipse;html=1;dashed=0;whiteSpace=wrap;perimeter=ellipsePerimeter;fontSize=39;fillColor=#d5e8d4;strokeColor=#82b366;" vertex="1" parent="dSucJgf5NAAdSh777Uda-1">
          <mxGeometry x="1110" y="260" width="140" height="90" as="geometry" />
        </mxCell>
        <mxCell id="dSucJgf5NAAdSh777Uda-40" style="edgeStyle=orthogonalEdgeStyle;rounded=0;orthogonalLoop=1;jettySize=auto;html=1;entryX=0.5;entryY=0;entryDx=0;entryDy=0;" edge="1" parent="dSucJgf5NAAdSh777Uda-1" source="dSucJgf5NAAdSh777Uda-41" target="dSucJgf5NAAdSh777Uda-37">
          <mxGeometry relative="1" as="geometry">
            <Array as="points">
              <mxPoint x="1690" y="-70" />
              <mxPoint x="1130" y="-70" />
            </Array>
          </mxGeometry>
        </mxCell>
        <mxCell id="dSucJgf5NAAdSh777Uda-41" value="Demo8.class" style="rounded=0;whiteSpace=wrap;html=1;fontSize=23;" vertex="1" parent="dSucJgf5NAAdSh777Uda-1">
          <mxGeometry x="1580" y="550" width="170" height="170" as="geometry" />
        </mxCell>
        <mxCell id="NnNf3ftJ2qNesDiuAoFl-1" style="edgeStyle=orthogonalEdgeStyle;rounded=0;orthogonalLoop=1;jettySize=auto;html=1;entryX=1;entryY=0.5;entryDx=0;entryDy=0;" edge="1" parent="dSucJgf5NAAdSh777Uda-1" source="dSucJgf5NAAdSh777Uda-44" target="FgBP-Qx10BLt1QpHPDlJ-0">
          <mxGeometry relative="1" as="geometry">
            <Array as="points">
              <mxPoint x="1220" y="615" />
              <mxPoint x="1220" y="730" />
            </Array>
          </mxGeometry>
        </mxCell>
        <mxCell id="dSucJgf5NAAdSh777Uda-44" value="0X7A1" style="rounded=0;whiteSpace=wrap;html=1;fillColor=#ffe6cc;strokeColor=#d79b00;fontSize=16;fontStyle=1" vertex="1" parent="dSucJgf5NAAdSh777Uda-1">
          <mxGeometry x="1100" y="595" width="100" height="40" as="geometry" />
        </mxCell>
        <mxCell id="NnNf3ftJ2qNesDiuAoFl-0" style="edgeStyle=orthogonalEdgeStyle;rounded=0;orthogonalLoop=1;jettySize=auto;html=1;entryX=0;entryY=0.5;entryDx=0;entryDy=0;" edge="1" parent="dSucJgf5NAAdSh777Uda-1" source="dSucJgf5NAAdSh777Uda-45" target="FgBP-Qx10BLt1QpHPDlJ-1">
          <mxGeometry relative="1" as="geometry">
            <Array as="points">
              <mxPoint x="1080" y="655" />
              <mxPoint x="1080" y="770" />
            </Array>
          </mxGeometry>
        </mxCell>
        <mxCell id="dSucJgf5NAAdSh777Uda-45" value="10" style="rounded=0;whiteSpace=wrap;html=1;fontSize=21;" vertex="1" parent="dSucJgf5NAAdSh777Uda-1">
          <mxGeometry x="1100" y="635" width="40" height="40" as="geometry" />
        </mxCell>
        <mxCell id="FgBP-Qx10BLt1QpHPDlJ-0" value="0XC80" style="rounded=0;whiteSpace=wrap;html=1;fillColor=#ffe6cc;strokeColor=#d79b00;fontSize=16;fontStyle=1" vertex="1" parent="dSucJgf5NAAdSh777Uda-1">
          <mxGeometry x="1100" y="710" width="100" height="40" as="geometry" />
        </mxCell>
        <mxCell id="FgBP-Qx10BLt1QpHPDlJ-1" value="10" style="rounded=0;whiteSpace=wrap;html=1;fontSize=21;" vertex="1" parent="dSucJgf5NAAdSh777Uda-1">
          <mxGeometry x="1100" y="750" width="40" height="40" as="geometry" />
        </mxCell>
        <mxCell id="FgBP-Qx10BLt1QpHPDlJ-4" value="20" style="rounded=0;whiteSpace=wrap;html=1;fontSize=21;" vertex="1" parent="dSucJgf5NAAdSh777Uda-1">
          <mxGeometry x="1140" y="751" width="40" height="40" as="geometry" />
        </mxCell>
        <mxCell id="d28YH4Nv24cPxZ91ecmJ-0" value="" style="rounded=0;whiteSpace=wrap;html=1;" vertex="1" parent="dSucJgf5NAAdSh777Uda-1">
          <mxGeometry x="40" y="555" width="200" height="186" as="geometry" />
        </mxCell>
        <mxCell id="d28YH4Nv24cPxZ91ecmJ-1" value="this =&amp;nbsp;0XAB013" style="rounded=0;whiteSpace=wrap;html=1;fontSize=19;" vertex="1" parent="dSucJgf5NAAdSh777Uda-1">
          <mxGeometry x="40" y="555" width="200" height="40" as="geometry" />
        </mxCell>
        <mxCell id="d28YH4Nv24cPxZ91ecmJ-4" style="edgeStyle=orthogonalEdgeStyle;rounded=0;orthogonalLoop=1;jettySize=auto;html=1;entryX=1;entryY=0.5;entryDx=0;entryDy=0;" edge="1" parent="dSucJgf5NAAdSh777Uda-1" source="d28YH4Nv24cPxZ91ecmJ-2" target="FgBP-Qx10BLt1QpHPDlJ-0">
          <mxGeometry relative="1" as="geometry">
            <Array as="points">
              <mxPoint x="270" y="655" />
              <mxPoint x="270" y="500" />
              <mxPoint x="1270" y="500" />
              <mxPoint x="1270" y="730" />
            </Array>
          </mxGeometry>
        </mxCell>
        <mxCell id="d28YH4Nv24cPxZ91ecmJ-2" value="int [ ] newNum" style="rounded=0;whiteSpace=wrap;html=1;fontSize=19;" vertex="1" parent="dSucJgf5NAAdSh777Uda-1">
          <mxGeometry x="40" y="635" width="200" height="40" as="geometry" />
        </mxCell>
        <mxCell id="d28YH4Nv24cPxZ91ecmJ-3" value="int numbers" style="rounded=0;whiteSpace=wrap;html=1;fontSize=19;" vertex="1" parent="dSucJgf5NAAdSh777Uda-1">
          <mxGeometry x="40" y="595" width="200" height="40" as="geometry" />
        </mxCell>
      </root>
    </mxGraphModel>
  </diagram>
  <diagram name="page-5" id="1gFia6udrZJ_M_jv6T6f">
    <mxGraphModel dx="3240" dy="2505" grid="1" gridSize="10" guides="1" tooltips="1" connect="1" arrows="1" fold="1" page="1" pageScale="1" pageWidth="850" pageHeight="1100" math="0" shadow="0">
      <root>
        <mxCell id="hHKe0zkofAqnvmmBSTH0-0" />
        <mxCell id="hHKe0zkofAqnvmmBSTH0-1" parent="hHKe0zkofAqnvmmBSTH0-0" />
        <mxCell id="hHKe0zkofAqnvmmBSTH0-2" value="" style="rounded=0;whiteSpace=wrap;html=1;" vertex="1" parent="hHKe0zkofAqnvmmBSTH0-1">
          <mxGeometry x="40" y="160" width="1030" height="820" as="geometry" />
        </mxCell>
        <mxCell id="qYhpeArGwmf3ht12P3CX-1" value="" style="rounded=0;whiteSpace=wrap;html=1;strokeWidth=9;" vertex="1" parent="hHKe0zkofAqnvmmBSTH0-1">
          <mxGeometry x="30" y="770" width="210" height="210" as="geometry" />
        </mxCell>
        <mxCell id="hHKe0zkofAqnvmmBSTH0-3" value="" style="rounded=0;whiteSpace=wrap;html=1;" vertex="1" parent="hHKe0zkofAqnvmmBSTH0-1">
          <mxGeometry x="240" y="10" width="1210" height="530" as="geometry" />
        </mxCell>
        <mxCell id="hHKe0zkofAqnvmmBSTH0-4" value="" style="rounded=0;whiteSpace=wrap;html=1;" vertex="1" parent="hHKe0zkofAqnvmmBSTH0-1">
          <mxGeometry x="240" y="540" width="1210" height="440" as="geometry" />
        </mxCell>
        <mxCell id="hHKe0zkofAqnvmmBSTH0-5" style="edgeStyle=orthogonalEdgeStyle;rounded=0;orthogonalLoop=1;jettySize=auto;html=1;entryX=0;entryY=0.5;entryDx=0;entryDy=0;" edge="1" parent="hHKe0zkofAqnvmmBSTH0-1" source="hHKe0zkofAqnvmmBSTH0-6" target="hHKe0zkofAqnvmmBSTH0-22">
          <mxGeometry relative="1" as="geometry" />
        </mxCell>
        <mxCell id="hHKe0zkofAqnvmmBSTH0-6" value="s1 =&amp;nbsp;0XAB013" style="rounded=0;whiteSpace=wrap;html=1;fontSize=22;" vertex="1" parent="hHKe0zkofAqnvmmBSTH0-1">
          <mxGeometry x="34" y="926" width="200" height="50" as="geometry" />
        </mxCell>
        <mxCell id="hHKe0zkofAqnvmmBSTH0-7" style="edgeStyle=orthogonalEdgeStyle;rounded=0;orthogonalLoop=1;jettySize=auto;html=1;entryX=0;entryY=0.5;entryDx=0;entryDy=0;dashed=1;strokeWidth=2;" edge="1" parent="hHKe0zkofAqnvmmBSTH0-1" source="hHKe0zkofAqnvmmBSTH0-8" target="hHKe0zkofAqnvmmBSTH0-12">
          <mxGeometry relative="1" as="geometry" />
        </mxCell>
        <mxCell id="hHKe0zkofAqnvmmBSTH0-8" value="String[ ]&amp;nbsp; args =&amp;nbsp;0XAC67" style="rounded=0;whiteSpace=wrap;html=1;fontSize=20;" vertex="1" parent="hHKe0zkofAqnvmmBSTH0-1">
          <mxGeometry x="35" y="818.5" width="200" height="50" as="geometry" />
        </mxCell>
        <mxCell id="qYhpeArGwmf3ht12P3CX-0" style="edgeStyle=orthogonalEdgeStyle;rounded=0;orthogonalLoop=1;jettySize=auto;html=1;entryX=0;entryY=0.5;entryDx=0;entryDy=0;" edge="1" parent="hHKe0zkofAqnvmmBSTH0-1" source="hHKe0zkofAqnvmmBSTH0-10" target="hHKe0zkofAqnvmmBSTH0-17">
          <mxGeometry relative="1" as="geometry">
            <Array as="points">
              <mxPoint x="290" y="806" />
              <mxPoint x="290" y="95" />
            </Array>
          </mxGeometry>
        </mxCell>
        <mxCell id="hHKe0zkofAqnvmmBSTH0-10" value="RCP =&amp;nbsp;0XAB987" style="rounded=0;whiteSpace=wrap;html=1;fontSize=21;" vertex="1" parent="hHKe0zkofAqnvmmBSTH0-1">
          <mxGeometry x="34" y="773" width="200" height="48" as="geometry" />
        </mxCell>
        <mxCell id="hHKe0zkofAqnvmmBSTH0-11" value="" style="rounded=0;whiteSpace=wrap;html=1;" vertex="1" parent="hHKe0zkofAqnvmmBSTH0-1">
          <mxGeometry x="340" y="831" width="10" height="39" as="geometry" />
        </mxCell>
        <mxCell id="hHKe0zkofAqnvmmBSTH0-12" value="0XAC67" style="rounded=0;whiteSpace=wrap;html=1;fillColor=#fff2cc;strokeColor=#d6b656;fontSize=20;fontStyle=1" vertex="1" parent="hHKe0zkofAqnvmmBSTH0-1">
          <mxGeometry x="340" y="801" width="100" height="30" as="geometry" />
        </mxCell>
        <mxCell id="hHKe0zkofAqnvmmBSTH0-13" style="edgeStyle=orthogonalEdgeStyle;rounded=0;orthogonalLoop=1;jettySize=auto;html=1;entryX=0.5;entryY=0;entryDx=0;entryDy=0;" edge="1" parent="hHKe0zkofAqnvmmBSTH0-1" source="hHKe0zkofAqnvmmBSTH0-15" target="hHKe0zkofAqnvmmBSTH0-17">
          <mxGeometry relative="1" as="geometry">
            <Array as="points">
              <mxPoint x="1990" y="-140" />
              <mxPoint x="510" y="-140" />
            </Array>
          </mxGeometry>
        </mxCell>
        <mxCell id="hHKe0zkofAqnvmmBSTH0-15" value="Stack.class" style="rounded=0;whiteSpace=wrap;html=1;fontSize=23;" vertex="1" parent="hHKe0zkofAqnvmmBSTH0-1">
          <mxGeometry x="1910" y="559" width="170" height="170" as="geometry" />
        </mxCell>
        <mxCell id="hHKe0zkofAqnvmmBSTH0-16" value="" style="rounded=0;whiteSpace=wrap;html=1;" vertex="1" parent="hHKe0zkofAqnvmmBSTH0-1">
          <mxGeometry x="450" y="120" width="220" height="350" as="geometry" />
        </mxCell>
        <mxCell id="hHKe0zkofAqnvmmBSTH0-17" value="0XAB987" style="rounded=0;whiteSpace=wrap;html=1;fontSize=21;fontStyle=1;fillColor=#ffe6cc;strokeColor=#d79b00;" vertex="1" parent="hHKe0zkofAqnvmmBSTH0-1">
          <mxGeometry x="450" y="70" width="120" height="50" as="geometry" />
        </mxCell>
        <mxCell id="hHKe0zkofAqnvmmBSTH0-18" value="int[ ] : numbers" style="rounded=0;whiteSpace=wrap;html=1;fontSize=22;fillColor=#f8cecc;strokeColor=#b85450;" vertex="1" parent="hHKe0zkofAqnvmmBSTH0-1">
          <mxGeometry x="450" y="121" width="220" height="50" as="geometry" />
        </mxCell>
        <mxCell id="hHKe0zkofAqnvmmBSTH0-19" value="instance : void Print() { }" style="rounded=0;whiteSpace=wrap;html=1;fontSize=19;fillColor=#f8cecc;strokeColor=#b85450;" vertex="1" parent="hHKe0zkofAqnvmmBSTH0-1">
          <mxGeometry x="450" y="171" width="220" height="50" as="geometry" />
        </mxCell>
        <mxCell id="hHKe0zkofAqnvmmBSTH0-20" value="Stack() { }" style="rounded=0;whiteSpace=wrap;html=1;fontSize=22;fillColor=#f8cecc;strokeColor=#b85450;" vertex="1" parent="hHKe0zkofAqnvmmBSTH0-1">
          <mxGeometry x="450" y="221" width="220" height="50" as="geometry" />
        </mxCell>
        <mxCell id="hHKe0zkofAqnvmmBSTH0-21" style="edgeStyle=orthogonalEdgeStyle;rounded=0;orthogonalLoop=1;jettySize=auto;html=1;entryX=1;entryY=0.5;entryDx=0;entryDy=0;dashed=1;strokeWidth=2;" edge="1" parent="hHKe0zkofAqnvmmBSTH0-1" source="hHKe0zkofAqnvmmBSTH0-22" target="hHKe0zkofAqnvmmBSTH0-23">
          <mxGeometry relative="1" as="geometry">
            <Array as="points">
              <mxPoint x="760" y="445" />
            </Array>
          </mxGeometry>
        </mxCell>
        <mxCell id="hHKe0zkofAqnvmmBSTH0-22" value="0XAB013" style="rounded=0;whiteSpace=wrap;html=1;fontSize=21;fontStyle=1;fillColor=#ffe6cc;strokeColor=#d79b00;" vertex="1" parent="hHKe0zkofAqnvmmBSTH0-1">
          <mxGeometry x="690" y="559" width="120" height="50" as="geometry" />
        </mxCell>
        <mxCell id="hHKe0zkofAqnvmmBSTH0-23" value="Demo4 class Object" style="rounded=0;whiteSpace=wrap;html=1;fontSize=19;" vertex="1" parent="hHKe0zkofAqnvmmBSTH0-1">
          <mxGeometry x="450" y="420" width="220" height="50" as="geometry" />
        </mxCell>
        <mxCell id="hHKe0zkofAqnvmmBSTH0-25" value="void: push(int num)" style="rounded=0;whiteSpace=wrap;html=1;fontSize=22;fillColor=#f8cecc;strokeColor=#b85450;" vertex="1" parent="hHKe0zkofAqnvmmBSTH0-1">
          <mxGeometry x="450" y="271" width="220" height="50" as="geometry" />
        </mxCell>
        <mxCell id="hHKe0zkofAqnvmmBSTH0-26" value="void: pop()" style="rounded=0;whiteSpace=wrap;html=1;fontSize=22;fillColor=#f8cecc;strokeColor=#b85450;" vertex="1" parent="hHKe0zkofAqnvmmBSTH0-1">
          <mxGeometry x="450" y="321" width="220" height="50" as="geometry" />
        </mxCell>
        <mxCell id="hHKe0zkofAqnvmmBSTH0-27" value="int : peek( )&amp;nbsp;" style="rounded=0;whiteSpace=wrap;html=1;fontSize=22;fillColor=#f8cecc;strokeColor=#b85450;" vertex="1" parent="hHKe0zkofAqnvmmBSTH0-1">
          <mxGeometry x="450" y="371" width="220" height="50" as="geometry" />
        </mxCell>
        <mxCell id="hHKe0zkofAqnvmmBSTH0-28" value="" style="rounded=0;whiteSpace=wrap;html=1;" vertex="1" parent="hHKe0zkofAqnvmmBSTH0-1">
          <mxGeometry x="690" y="609" width="220" height="350" as="geometry" />
        </mxCell>
        <mxCell id="hHKe0zkofAqnvmmBSTH0-29" style="edgeStyle=orthogonalEdgeStyle;rounded=0;orthogonalLoop=1;jettySize=auto;html=1;entryX=0;entryY=0.5;entryDx=0;entryDy=0;" edge="1" parent="hHKe0zkofAqnvmmBSTH0-1" source="hHKe0zkofAqnvmmBSTH0-30" target="hHKe0zkofAqnvmmBSTH0-44">
          <mxGeometry relative="1" as="geometry" />
        </mxCell>
        <mxCell id="hHKe0zkofAqnvmmBSTH0-30" value="int[ ] : numbers =&amp;nbsp;0XC80" style="rounded=0;whiteSpace=wrap;html=1;fontSize=18;fillColor=#d5e8d4;strokeColor=#82b366;" vertex="1" parent="hHKe0zkofAqnvmmBSTH0-1">
          <mxGeometry x="690" y="610" width="220" height="50" as="geometry" />
        </mxCell>
        <mxCell id="hHKe0zkofAqnvmmBSTH0-31" value="instance : void Print() { }" style="rounded=0;whiteSpace=wrap;html=1;fontSize=19;fillColor=#d5e8d4;strokeColor=#82b366;" vertex="1" parent="hHKe0zkofAqnvmmBSTH0-1">
          <mxGeometry x="690" y="660" width="220" height="50" as="geometry" />
        </mxCell>
        <mxCell id="hHKe0zkofAqnvmmBSTH0-32" value="Stack() { }" style="rounded=0;whiteSpace=wrap;html=1;fontSize=22;fillColor=#d5e8d4;strokeColor=#82b366;" vertex="1" parent="hHKe0zkofAqnvmmBSTH0-1">
          <mxGeometry x="690" y="710" width="220" height="50" as="geometry" />
        </mxCell>
        <mxCell id="hHKe0zkofAqnvmmBSTH0-33" value="void: push(int num = 10)" style="rounded=0;whiteSpace=wrap;html=1;fontSize=20;fillColor=#d5e8d4;strokeColor=#82b366;" vertex="1" parent="hHKe0zkofAqnvmmBSTH0-1">
          <mxGeometry x="690" y="760" width="220" height="50" as="geometry" />
        </mxCell>
        <mxCell id="hHKe0zkofAqnvmmBSTH0-34" value="void: pop()" style="rounded=0;whiteSpace=wrap;html=1;fontSize=22;fillColor=#d5e8d4;strokeColor=#82b366;" vertex="1" parent="hHKe0zkofAqnvmmBSTH0-1">
          <mxGeometry x="690" y="810" width="220" height="50" as="geometry" />
        </mxCell>
        <mxCell id="hHKe0zkofAqnvmmBSTH0-35" value="int : peek( )&amp;nbsp;" style="rounded=0;whiteSpace=wrap;html=1;fontSize=22;fillColor=#d5e8d4;strokeColor=#82b366;" vertex="1" parent="hHKe0zkofAqnvmmBSTH0-1">
          <mxGeometry x="690" y="860" width="220" height="50" as="geometry" />
        </mxCell>
        <mxCell id="hHKe0zkofAqnvmmBSTH0-36" value="" style="rounded=0;whiteSpace=wrap;html=1;" vertex="1" parent="hHKe0zkofAqnvmmBSTH0-1">
          <mxGeometry x="1070" y="110" width="220" height="350" as="geometry" />
        </mxCell>
        <mxCell id="hHKe0zkofAqnvmmBSTH0-37" value="0XAC56" style="rounded=0;whiteSpace=wrap;html=1;fontSize=21;fontStyle=1;fillColor=#ffe6cc;strokeColor=#d79b00;" vertex="1" parent="hHKe0zkofAqnvmmBSTH0-1">
          <mxGeometry x="1070" y="60" width="120" height="50" as="geometry" />
        </mxCell>
        <mxCell id="hHKe0zkofAqnvmmBSTH0-38" value="Demo8() { }" style="rounded=0;whiteSpace=wrap;html=1;fontSize=19;" vertex="1" parent="hHKe0zkofAqnvmmBSTH0-1">
          <mxGeometry x="1070" y="110" width="220" height="50" as="geometry" />
        </mxCell>
        <mxCell id="hHKe0zkofAqnvmmBSTH0-39" value="psvm" style="shape=ellipse;html=1;dashed=0;whiteSpace=wrap;perimeter=ellipsePerimeter;fontSize=39;fillColor=#d5e8d4;strokeColor=#82b366;" vertex="1" parent="hHKe0zkofAqnvmmBSTH0-1">
          <mxGeometry x="1110" y="260" width="140" height="90" as="geometry" />
        </mxCell>
        <mxCell id="hHKe0zkofAqnvmmBSTH0-40" style="edgeStyle=orthogonalEdgeStyle;rounded=0;orthogonalLoop=1;jettySize=auto;html=1;entryX=0.5;entryY=0;entryDx=0;entryDy=0;" edge="1" parent="hHKe0zkofAqnvmmBSTH0-1" source="hHKe0zkofAqnvmmBSTH0-41" target="hHKe0zkofAqnvmmBSTH0-37">
          <mxGeometry relative="1" as="geometry">
            <Array as="points">
              <mxPoint x="1690" y="-70" />
              <mxPoint x="1130" y="-70" />
            </Array>
          </mxGeometry>
        </mxCell>
        <mxCell id="hHKe0zkofAqnvmmBSTH0-41" value="Demo8.class" style="rounded=0;whiteSpace=wrap;html=1;fontSize=23;" vertex="1" parent="hHKe0zkofAqnvmmBSTH0-1">
          <mxGeometry x="1580" y="550" width="170" height="170" as="geometry" />
        </mxCell>
        <mxCell id="hHKe0zkofAqnvmmBSTH0-42" value="0X7A1" style="rounded=0;whiteSpace=wrap;html=1;fillColor=#ffe6cc;strokeColor=#d79b00;fontSize=16;fontStyle=1" vertex="1" parent="hHKe0zkofAqnvmmBSTH0-1">
          <mxGeometry x="1100" y="595" width="100" height="40" as="geometry" />
        </mxCell>
        <mxCell id="hHKe0zkofAqnvmmBSTH0-43" value="10" style="rounded=0;whiteSpace=wrap;html=1;fontSize=21;" vertex="1" parent="hHKe0zkofAqnvmmBSTH0-1">
          <mxGeometry x="1100" y="635" width="40" height="40" as="geometry" />
        </mxCell>
        <mxCell id="hHKe0zkofAqnvmmBSTH0-44" value="0XC80" style="rounded=0;whiteSpace=wrap;html=1;fillColor=#ffe6cc;strokeColor=#d79b00;fontSize=16;fontStyle=1" vertex="1" parent="hHKe0zkofAqnvmmBSTH0-1">
          <mxGeometry x="1100" y="710" width="100" height="40" as="geometry" />
        </mxCell>
        <mxCell id="hHKe0zkofAqnvmmBSTH0-45" value="10" style="rounded=0;whiteSpace=wrap;html=1;fontSize=21;" vertex="1" parent="hHKe0zkofAqnvmmBSTH0-1">
          <mxGeometry x="1100" y="750" width="40" height="40" as="geometry" />
        </mxCell>
        <mxCell id="hHKe0zkofAqnvmmBSTH0-46" value="20" style="rounded=0;whiteSpace=wrap;html=1;fontSize=21;" vertex="1" parent="hHKe0zkofAqnvmmBSTH0-1">
          <mxGeometry x="1140" y="751" width="40" height="40" as="geometry" />
        </mxCell>
        <mxCell id="ptm8AHKkyJGbQCB_mPYO-0" value="" style="rounded=0;whiteSpace=wrap;html=1;" vertex="1" parent="hHKe0zkofAqnvmmBSTH0-1">
          <mxGeometry x="40" y="574" width="200" height="186" as="geometry" />
        </mxCell>
        <mxCell id="ptm8AHKkyJGbQCB_mPYO-1" value="this =&amp;nbsp;0XAB013" style="rounded=0;whiteSpace=wrap;html=1;fontSize=19;" vertex="1" parent="hHKe0zkofAqnvmmBSTH0-1">
          <mxGeometry x="40" y="574" width="200" height="40" as="geometry" />
        </mxCell>
        <mxCell id="ptm8AHKkyJGbQCB_mPYO-4" value="0XAB013.print ( )" style="rounded=0;whiteSpace=wrap;html=1;fontSize=22;" vertex="1" parent="hHKe0zkofAqnvmmBSTH0-1">
          <mxGeometry x="-150" y="637" width="180" height="60" as="geometry" />
        </mxCell>
      </root>
    </mxGraphModel>
  </diagram>
</mxfile>
